<svg viewBox="0 0 24 24" xmlns="http://www.w3.org/2000/svg">
  <path fill="#000000" d="M17.05 20.28c-.98.95-2.05.88-3.08.4-1.09-.5-2.08-.48-3.24 0-1.44.62-2.2.44-3.06-.4C2.79 15.25 3.51 7.59 9.05 7.31c1.35.05 2.29.89 3.08.89.79 0 2.04-1.1 3.28-.95 1.62.05 2.97.96 3.72 2.23-.1.06-2.05 1.2-2.05 3.57 0 2.73 2.37 3.64 2.44 3.66-.03.07-.3 1.04-1.12 1.96-.7.76-1.44 1.48-2.35 1.61zm-1.45-14.83c-.61-.74-1.56-1.36-2.4-1.29-.12.96.37 1.95 1.27 2.6.71.58 1.83.93 2.51 1.08.09-.81-.32-1.76-1.38-2.39z"/>
</svg>